solid ascii
  facet normal 0.000000e+00 0.000000e+00 1.000000e+00
    outer loop
      vertex   -8.250000e+00 4.450000e+01 9.000000e+00
      vertex   -3.700000e+01 4.600000e+01 9.000000e+00
      vertex   -3.575000e+01 4.450000e+01 9.000000e+00
    endloop
  endfacet
  facet normal 0.000000e+00 -0.000000e+00 1.000000e+00
    outer loop
      vertex   -8.250000e+00 4.450000e+01 9.000000e+00
      vertex   -7.000000e+00 4.600000e+01 9.000000e+00
      vertex   -3.700000e+01 4.600000e+01 9.000000e+00
    endloop
  endfacet
  facet normal -0.000000e+00 0.000000e+00 1.000000e+00
    outer loop
      vertex   -8.250000e+00 4.450000e+01 9.000000e+00
      vertex   -7.000000e+00 6.000000e+00 9.000000e+00
      vertex   -7.000000e+00 4.600000e+01 9.000000e+00
    endloop
  endfacet
  facet normal -0.000000e+00 0.000000e+00 1.000000e+00
    outer loop
      vertex   -8.250000e+00 4.450000e+01 9.000000e+00
      vertex   -8.250000e+00 6.000000e+00 9.000000e+00
      vertex   -7.000000e+00 6.000000e+00 9.000000e+00
    endloop
  endfacet
  facet normal -0.000000e+00 0.000000e+00 1.000000e+00
    outer loop
      vertex   -3.700000e+01 4.600000e+01 9.000000e+00
      vertex   -3.700000e+01 6.000000e+00 9.000000e+00
      vertex   -3.575000e+01 4.450000e+01 9.000000e+00
    endloop
  endfacet
  facet normal -0.000000e+00 0.000000e+00 1.000000e+00
    outer loop
      vertex   -3.575000e+01 4.450000e+01 9.000000e+00
      vertex   -3.700000e+01 6.000000e+00 9.000000e+00
      vertex   -3.575000e+01 6.000000e+00 9.000000e+00
    endloop
  endfacet
  facet normal -1.000000e+00 0.000000e+00 0.000000e+00
    outer loop
      vertex   -8.250000e+00 4.450000e+01 2.000000e+00
      vertex   -8.250000e+00 6.000000e+00 2.000000e+00
      vertex   -8.250000e+00 4.450000e+01 9.000000e+00
    endloop
  endfacet
  facet normal -1.000000e+00 -0.000000e+00 0.000000e+00
    outer loop
      vertex   -8.250000e+00 4.450000e+01 9.000000e+00
      vertex   -8.250000e+00 6.000000e+00 2.000000e+00
      vertex   -8.250000e+00 6.000000e+00 9.000000e+00
    endloop
  endfacet
  facet normal 1.000000e+00 0.000000e+00 -0.000000e+00
    outer loop
      vertex   -3.575000e+01 6.000000e+00 2.000000e+00
      vertex   -3.575000e+01 4.450000e+01 2.000000e+00
      vertex   -3.575000e+01 6.000000e+00 9.000000e+00
    endloop
  endfacet
  facet normal 1.000000e+00 -0.000000e+00 0.000000e+00
    outer loop
      vertex   -3.575000e+01 6.000000e+00 9.000000e+00
      vertex   -3.575000e+01 4.450000e+01 2.000000e+00
      vertex   -3.575000e+01 4.450000e+01 9.000000e+00
    endloop
  endfacet
  facet normal 0.000000e+00 -1.000000e+00 -0.000000e+00
    outer loop
      vertex   -3.575000e+01 6.000000e+00 2.000000e+00
      vertex   -3.700000e+01 6.000000e+00 0.000000e+00
      vertex   -8.250000e+00 6.000000e+00 2.000000e+00
    endloop
  endfacet
  facet normal -0.000000e+00 -1.000000e+00 -0.000000e+00
    outer loop
      vertex   -3.575000e+01 6.000000e+00 2.000000e+00
      vertex   -3.700000e+01 6.000000e+00 9.000000e+00
      vertex   -3.700000e+01 6.000000e+00 0.000000e+00
    endloop
  endfacet
  facet normal 0.000000e+00 -1.000000e+00 0.000000e+00
    outer loop
      vertex   -3.575000e+01 6.000000e+00 2.000000e+00
      vertex   -3.575000e+01 6.000000e+00 9.000000e+00
      vertex   -3.700000e+01 6.000000e+00 9.000000e+00
    endloop
  endfacet
  facet normal 0.000000e+00 -1.000000e+00 0.000000e+00
    outer loop
      vertex   -3.700000e+01 6.000000e+00 0.000000e+00
      vertex   -7.000000e+00 6.000000e+00 0.000000e+00
      vertex   -8.250000e+00 6.000000e+00 2.000000e+00
    endloop
  endfacet
  facet normal 0.000000e+00 -1.000000e+00 0.000000e+00
    outer loop
      vertex   -8.250000e+00 6.000000e+00 2.000000e+00
      vertex   -7.000000e+00 6.000000e+00 0.000000e+00
      vertex   -7.000000e+00 6.000000e+00 9.000000e+00
    endloop
  endfacet
  facet normal 0.000000e+00 -1.000000e+00 0.000000e+00
    outer loop
      vertex   -8.250000e+00 6.000000e+00 9.000000e+00
      vertex   -8.250000e+00 6.000000e+00 2.000000e+00
      vertex   -7.000000e+00 6.000000e+00 9.000000e+00
    endloop
  endfacet
  facet normal 0.000000e+00 -1.000000e+00 0.000000e+00
    outer loop
      vertex   -3.575000e+01 4.450000e+01 2.000000e+00
      vertex   -8.250000e+00 4.450000e+01 2.000000e+00
      vertex   -3.575000e+01 4.450000e+01 9.000000e+00
    endloop
  endfacet
  facet normal 0.000000e+00 -1.000000e+00 0.000000e+00
    outer loop
      vertex   -3.575000e+01 4.450000e+01 9.000000e+00
      vertex   -8.250000e+00 4.450000e+01 2.000000e+00
      vertex   -8.250000e+00 4.450000e+01 9.000000e+00
    endloop
  endfacet
  facet normal 0.000000e+00 0.000000e+00 1.000000e+00
    outer loop
      vertex   -8.250000e+00 4.450000e+01 2.000000e+00
      vertex   -3.575000e+01 4.450000e+01 2.000000e+00
      vertex   -8.250000e+00 6.000000e+00 2.000000e+00
    endloop
  endfacet
  facet normal 0.000000e+00 0.000000e+00 1.000000e+00
    outer loop
      vertex   -8.250000e+00 6.000000e+00 2.000000e+00
      vertex   -3.575000e+01 4.450000e+01 2.000000e+00
      vertex   -3.575000e+01 6.000000e+00 2.000000e+00
    endloop
  endfacet
  facet normal 0.000000e+00 0.000000e+00 -1.000000e+00
    outer loop
      vertex   -7.000000e+00 6.000000e+00 0.000000e+00
      vertex   -3.700000e+01 6.000000e+00 0.000000e+00
      vertex   -7.000000e+00 4.600000e+01 0.000000e+00
    endloop
  endfacet
  facet normal -0.000000e+00 0.000000e+00 -1.000000e+00
    outer loop
      vertex   -7.000000e+00 4.600000e+01 0.000000e+00
      vertex   -3.700000e+01 6.000000e+00 0.000000e+00
      vertex   -3.700000e+01 4.600000e+01 0.000000e+00
    endloop
  endfacet
  facet normal -1.000000e+00 -0.000000e+00 -0.000000e+00
    outer loop
      vertex   -3.700000e+01 4.600000e+01 9.000000e+00
      vertex   -3.700000e+01 4.600000e+01 0.000000e+00
      vertex   -3.700000e+01 6.000000e+00 9.000000e+00
    endloop
  endfacet
  facet normal -1.000000e+00 -0.000000e+00 -0.000000e+00
    outer loop
      vertex   -3.700000e+01 6.000000e+00 9.000000e+00
      vertex   -3.700000e+01 4.600000e+01 0.000000e+00
      vertex   -3.700000e+01 6.000000e+00 0.000000e+00
    endloop
  endfacet
  facet normal 0.000000e+00 1.000000e+00 0.000000e+00
    outer loop
      vertex   -7.000000e+00 4.600000e+01 9.000000e+00
      vertex   -7.000000e+00 4.600000e+01 0.000000e+00
      vertex   -3.700000e+01 4.600000e+01 9.000000e+00
    endloop
  endfacet
  facet normal 0.000000e+00 1.000000e+00 0.000000e+00
    outer loop
      vertex   -3.700000e+01 4.600000e+01 9.000000e+00
      vertex   -7.000000e+00 4.600000e+01 0.000000e+00
      vertex   -3.700000e+01 4.600000e+01 0.000000e+00
    endloop
  endfacet
  facet normal 1.000000e+00 -0.000000e+00 0.000000e+00
    outer loop
      vertex   -7.000000e+00 6.000000e+00 9.000000e+00
      vertex   -7.000000e+00 6.000000e+00 0.000000e+00
      vertex   -7.000000e+00 4.600000e+01 9.000000e+00
    endloop
  endfacet
  facet normal 1.000000e+00 -0.000000e+00 0.000000e+00
    outer loop
      vertex   -7.000000e+00 4.600000e+01 9.000000e+00
      vertex   -7.000000e+00 6.000000e+00 0.000000e+00
      vertex   -7.000000e+00 4.600000e+01 0.000000e+00
    endloop
  endfacet
endsolid
